<svg width="9.000000" height="16.000000" viewBox="0 0 9 16" fill="none" xmlns="http://www.w3.org/2000/svg" xmlns:xlink="http://www.w3.org/1999/xlink">
	<desc>
			Created with Pixso.
	</desc>
	<defs/>
	<path id="$" d="M7.95 12.22Q8.34 11.48 8.34 10.54Q8.37 9.93 8.19 9.39Q7.93 8.64 7.22 8.04Q6.73 7.59 5.66 7.16Q5.48 7.08 4.79 6.81L4.79 3.25Q5.25 3.35 5.61 3.61Q6.12 3.98 6.39 4.67L8.14 3.66Q7.69 2.66 6.93 2.05Q6.06 1.37 4.79 1.2L4.79 -0.41L3.62 -0.41L3.62 1.18Q2.5 1.29 1.66 1.83Q1.37 2.02 1.12 2.26Q0.73 2.63 0.49 3.08Q0.11 3.79 0.11 4.7Q0.11 5.83 0.64 6.59Q0.88 6.94 1.23 7.21Q2.07 7.84 3.62 8.43L3.62 12.18Q2.76 12.07 2.17 11.61Q1.62 11.18 1.32 10.41L-0.46 11.44Q-0.19 12.17 0.29 12.72Q0.63 13.11 1.06 13.4Q2.13 14.12 3.62 14.21L3.62 15.8L4.79 15.8L4.79 14.19Q6.14 14.03 7.05 13.3Q7.21 13.17 7.36 13.02Q7.72 12.65 7.95 12.22ZM2.35 5.39Q2.18 5.09 2.18 4.7Q2.18 4.34 2.33 4.04Q2.42 3.87 2.57 3.72Q2.58 3.7 2.6 3.69Q2.98 3.32 3.62 3.22L3.62 6.34Q2.83 5.97 2.5 5.61Q2.41 5.5 2.35 5.39ZM4.79 12.16L4.79 8.88Q5.58 9.23 5.93 9.6Q6.02 9.71 6.09 9.83Q6.27 10.14 6.27 10.56Q6.27 10.88 6.15 11.16Q6.06 11.39 5.88 11.58Q5.88 11.58 5.88 11.59Q5.49 12.01 4.79 12.16Z" fill="#FFFFFF" fill-opacity="1.000000" fill-rule="evenodd"/>
</svg>
